<?xml version="1.0" standalone="no"?>
<!DOCTYPE svg PUBLIC "-//W3C//DTD SVG 20010904//EN"
 "http://www.w3.org/TR/2001/REC-SVG-20010904/DTD/svg10.dtd">
<svg version="1.0" xmlns="http://www.w3.org/2000/svg"
 width="256.000000pt" height="256.000000pt" viewBox="0 0 256.000000 256.000000"
 preserveAspectRatio="xMidYMid meet">
<metadata>
Created by potrace 1.11, written by Peter Selinger 2001-2013
</metadata>
<g transform="translate(0.000000,256.000000) scale(0.100000,-0.100000)"
fill="#000000" stroke="none">
<path d="M370 2178 c-195 -196 -315 -448 -360 -755 -14 -100 -13 -185 6 -310
43 -291 164 -534 364 -733 203 -202 442 -321 733 -364 132 -20 202 -20 334 0
141 20 258 56 380 114 138 65 239 137 349 245 197 196 315 426 364 710 11 64
20 150 20 191 0 166 -50 388 -125 551 -65 141 -192 313 -295 400 -33 28 -26
18 27 -39 229 -244 343 -528 343 -853 0 -323 -117 -615 -338 -847 -236 -246
-548 -381 -887 -381 -209 -1 -383 41 -569 136 -731 374 -893 1344 -324 1943
39 41 68 74 66 74 -3 0 -42 -37 -88 -82z"/>
<path d="M1137 2243 c-4 -3 -7 -62 -7 -130 0 -95 3 -123 13 -123 22 0 47 67
47 126 0 35 -7 69 -20 94 -22 42 -23 44 -33 33z"/>
<path d="M1931 2124 c-34 -58 -61 -110 -59 -115 2 -5 22 3 45 16 29 18 49 41
67 77 25 50 35 128 17 128 -5 0 -37 -48 -70 -106z"/>
<path d="M1211 2007 c-19 -7 -44 -25 -55 -40 -19 -26 -21 -46 -26 -225 l-5
-197 -368 -457 -367 -458 67 -70 c166 -176 393 -299 633 -341 104 -18 296 -16
403 5 204 39 402 139 553 278 24 22 44 45 44 50 0 5 -142 8 -360 6 -198 -2
-360 -1 -360 2 0 3 33 17 73 32 113 43 195 96 282 183 138 138 196 289 199
515 1 116 -9 228 -20 217 -3 -2 -6 -74 -8 -158 -2 -127 -7 -166 -25 -224 -78
-241 -271 -414 -543 -487 -68 -18 -108 -22 -218 -21 -160 0 -243 19 -378 85
l-87 42 140 7 c160 8 246 29 370 89 263 127 427 357 480 673 l6 37 129 0 130
0 0 194 c0 286 13 276 -382 275 -184 0 -284 -4 -307 -12z m176 -67 c18 -10 40
-31 49 -45 22 -34 22 -106 1 -139 -75 -114 -247 -64 -247 72 0 102 110 165
197 112z m314 5 c41 -22 69 -71 69 -122 0 -82 -87 -145 -169 -123 -78 21 -117
101 -86 178 29 73 115 103 186 67z"/>
</g>
</svg>
