<?xml version="1.0" encoding="UTF-8" standalone="no"?>
<!-- Created with Inkscape (http://www.inkscape.org/) -->

<svg
   xmlns:dc="http://purl.org/dc/elements/1.1/"
   xmlns:cc="http://creativecommons.org/ns#"
   xmlns:rdf="http://www.w3.org/1999/02/22-rdf-syntax-ns#"
   xmlns:svg="http://www.w3.org/2000/svg"
   xmlns="http://www.w3.org/2000/svg"
   xmlns:sodipodi="http://sodipodi.sourceforge.net/DTD/sodipodi-0.dtd"
   xmlns:inkscape="http://www.inkscape.org/namespaces/inkscape"
   width="169.33328mm"
   height="73.307327mm"
   viewBox="0 0 599.99982 259.75037"
   id="svg4559"
   version="1.1"
   inkscape:version="0.91 r13725"
   sodipodi:docname="brand.svg">
  <defs
     id="defs4561" />
  <sodipodi:namedview
     id="base"
     pagecolor="#ffffff"
     bordercolor="#666666"
     borderopacity="1.0"
     inkscape:pageopacity="0.0"
     inkscape:pageshadow="2"
     inkscape:zoom="1"
     inkscape:cx="41.561827"
     inkscape:cy="111.64448"
     inkscape:document-units="px"
     inkscape:current-layer="g4544"
     showgrid="false"
     fit-margin-top="0"
     fit-margin-left="0"
     fit-margin-right="0"
     fit-margin-bottom="0"
     inkscape:window-width="1920"
     inkscape:window-height="1017"
     inkscape:window-x="-8"
     inkscape:window-y="-8"
     inkscape:window-maximized="1"
     inkscape:object-paths="true"
     inkscape:snap-intersection-paths="true"
     inkscape:object-nodes="true"
     inkscape:snap-smooth-nodes="true"
     inkscape:snap-midpoints="false" />
  <metadata
     id="metadata4564">
    <rdf:RDF>
      <cc:Work
         rdf:about="">
        <dc:format>image/svg+xml</dc:format>
        <dc:type
           rdf:resource="http://purl.org/dc/dcmitype/StillImage" />
        <dc:title></dc:title>
      </cc:Work>
    </rdf:RDF>
  </metadata>
  <g
     inkscape:label="Camada 1"
     inkscape:groupmode="layer"
     id="layer1"
     transform="translate(577.13683,-345.34297)">
    <g
       id="g4544"
       style="opacity:0.93199978;stroke:none"
       inkscape:export-xdpi="90"
       inkscape:export-ydpi="90"
       transform="matrix(0.93271084,0,0,0.93271084,-23395.804,-5262.7771)">
      <rect
         style="opacity:1;fill:#e8e8e8;fill-opacity:1;stroke:none;stroke-width:0.25;stroke-linecap:butt;stroke-linejoin:bevel;stroke-miterlimit:4;stroke-dasharray:none;stroke-dashoffset:0;stroke-opacity:1"
         id="rect4540"
         width="643.17358"
         height="278.04276"
         x="24464.945"
         y="6012.751" />
      <path
         style="fill:#0e1b3d;fill-opacity:1;stroke:none"
         d="m 24787.598,6012.7103 c -0.479,0 -0.479,0.2579 -0.479,11.5336 0,9.0045 0.06,11.5573 0.307,11.6441 0.44,0.1583 0.858,-0.2388 1.802,-1.7167 4.005,-6.2594 3.837,-14.1916 -0.434,-20.4171 -0.43,-0.6276 -0.906,-1.0439 -1.196,-1.0439 z m 76.86,1.3608 c -0.281,-0.023 -0.598,0.2191 -0.884,0.7294 -0.545,0.9686 -6.245,10.8547 -8.803,15.2692 -1.106,1.9088 -2.012,3.5888 -2.012,3.7306 0,0.1419 0.139,0.3069 0.307,0.366 0.678,0.2385 3.32,-1.1266 5.378,-2.7777 2.895,-2.3224 4.629,-4.8581 5.888,-8.6158 0.817,-2.4283 1.205,-6.298 0.793,-7.8496 -0.144,-0.5444 -0.387,-0.8299 -0.667,-0.8521 z m -43.382,19.5352 c -26.6,0 -26.084,-0.023 -28.589,1.2551 -1.619,0.8263 -3.478,2.7594 -4.398,4.5732 l -0.838,1.6455 -0.06,16.7428 -0.06,16.7453 -8.663,10.804 c -17.463,21.7742 -40.114,49.9985 -42.703,53.2101 -0.381,0.4732 -4.412,5.5058 -8.959,11.1847 -4.547,5.679 -8.491,10.6037 -8.762,10.9417 -0.272,0.338 -1.068,1.3553 -1.771,2.2597 l -1.282,1.643 -152.615,0.015 c -77.797,0.013 -78.218,0 -97.487,-0.013 l 0,126.5866 643.286,0 0,-126.6013 -124.365,-0.023 c -98.933,-0.018 -179.473,-0.032 -179.345,-0.1474 0.128,-0.1157 0.953,-0.4015 1.832,-0.6361 4.899,-1.3077 13.028,-4.6386 18.032,-7.3926 16.782,-9.2334 27.258,-22.8263 31.534,-40.9054 2.376,-10.0542 2.658,-23.8941 0.695,-34.1831 -0.391,-2.052 -0.674,-2.5162 -1.189,-1.9697 -0.278,0.3041 -0.269,0.6914 0.05,2.5689 0.58,3.3671 0.563,16.6356 -0.03,20.7757 -0.862,6.0806 -2.109,10.925 -4.014,15.6105 -4.762,11.7022 -12.684,21.2472 -23.799,28.6719 -12.067,8.062 -27.232,12.5161 -42.605,12.5036 -12.062,-0.013 -23.572,-2.6586 -34.109,-7.8568 -3.394,-1.6747 -8.848,-4.8841 -8.647,-5.0865 0.06,-0.058 1.861,0.026 4.007,0.1843 6.938,0.5119 16.256,-0.093 23.308,-1.513 14.584,-2.9371 28.343,-9.9941 38.484,-19.7391 4.666,-4.4837 8.065,-8.5721 11.376,-13.6801 6.277,-9.6877 10.535,-21.5752 12.128,-33.8639 l 0.423,-3.2568 11.765,0 11.763,0 0,-16.2883 c 0,-17.8178 0.01,-17.5301 -1.461,-19.8301 -1.618,-2.5174 -4.006,-4.1451 -6.885,-4.6911 -0.823,-0.1559 -10.456,-0.2481 -26.051,-0.2481 z m 11.249,4.3915 c 1.28,0.043 2.561,0.2214 3.441,0.5182 3.857,1.2992 6.911,4.4502 8.051,8.3088 0.544,1.8142 0.541,4.9216 0,6.7222 -0.479,1.5981 -1.808,3.9112 -2.934,5.1061 -1.188,1.2607 -3.515,2.6849 -5.279,3.2297 l 0,0 c -1.7,0.5251 -4.788,0.6237 -6.547,0.2111 -1.449,-0.3396 -3.816,-1.579 -5.082,-2.6623 -4.23,-3.6185 -5.407,-10.1106 -2.738,-15.112 1.417,-2.6551 4.689,-5.2374 7.652,-6.0345 0.882,-0.2376 2.163,-0.3302 3.443,-0.2873 z m -28.786,0.049 c 5.481,-0.073 10.559,3.5603 12.087,9.4508 0.379,1.4626 0.31,4.5223 -0.135,6.0393 -1.317,4.4817 -4.82,7.7527 -9.323,8.7068 -0.945,0.1999 -2.158,0.354 -2.699,0.3414 -5.094,-0.1207 -9.934,-3.7619 -11.48,-8.6355 -1.759,-5.5511 0.908,-11.9636 6.054,-14.5422 1.799,-0.9015 3.671,-1.3363 5.496,-1.3606 z m -29.381,128.6079 c 0.605,0.086 0.672,0.189 7.661,12.3169 2.476,4.2978 4.299,7.725 4.224,7.9282 -0.211,0.5495 -1.118,0.4259 -2.689,-0.3709 -6.144,-3.1161 -9.984,-9.2386 -10.085,-16.1091 -0.05,-3.0622 0.145,-3.8708 0.889,-3.7651 z m 264.502,25.7663 c 1.104,0 1.851,0.9172 2.028,2.488 0.113,1.0396 2.397,34.6657 3.287,48.5017 l 0.171,2.6821 4.426,0.8277 c 3.878,0.7234 4.494,0.9021 4.979,1.449 0.713,0.8005 0.699,1.3829 -0.04,2.2423 l 0,0 -0.595,0.6902 -16.8,0.054 c -14.672,0.048 -16.889,0.013 -17.49,-0.3217 -1.101,-0.602 -1.205,-1.2641 -0.645,-4.0966 2.257,-11.4368 5.612,-18.3946 11.892,-24.6464 1.63,-1.6225 3.76,-3.5017 4.734,-4.1777 l 1.774,-1.2304 0,-9.0972 0,-9.0947 -1.599,1.7216 c -3.738,4.0289 -6.485,9.3193 -7.56,14.5766 -0.429,2.0947 -0.641,2.4138 -1.846,2.7484 -1.25,0.3469 -2.362,0.3121 -3.362,-0.1056 -1.329,-0.5553 -1.458,-1.237 -0.75,-4.0304 1.721,-6.7836 5.392,-12.4033 11.455,-17.5238 2.161,-1.8251 5.138,-3.6571 5.942,-3.6571 z m -47.26,0.015 c 0.474,0.044 0.947,0.2378 1.327,0.5894 l 0.647,0.6017 0,10.7919 0,10.7892 3.136,0.1623 c 1.724,0.088 4.573,0.1595 6.331,0.1595 1.757,0 4.774,0.077 6.704,0.1646 3.199,0.1464 3.564,0.2099 4.119,0.7245 0.77,0.7089 0.787,1.664 0.05,2.402 -0.527,0.5273 -0.83,0.5758 -4.61,0.7269 -2.224,0.089 -6.365,0.1693 -9.205,0.1819 -2.839,0.013 -5.469,0.079 -5.841,0.1521 l -0.675,0.1327 0,14.832 c 0,10.7228 -0.07,15.0061 -0.284,15.4583 -0.183,0.4007 -0.604,0.7149 -1.17,0.872 l 0,0 c -1.353,0.3757 -14.256,0.3145 -15.018,-0.072 -0.75,-0.3796 -1.316,-1.4794 -1.103,-2.149 0.285,-0.8981 1.33,-1.2863 5.603,-2.0729 3.684,-0.6784 4.235,-0.8382 4.285,-1.2525 0.04,-0.2615 0.39,-5.6194 0.799,-11.9069 0.408,-6.2874 0.803,-11.9684 0.891,-12.6241 l 0.15,-1.1936 -5.306,0.086 c -5.223,0.084 -5.312,0.078 -5.854,-0.4641 -0.613,-0.6114 -0.698,-2.0638 -0.193,-3.2837 0.474,-1.1463 1.233,-1.2774 6.632,-1.1592 2.704,0.06 4.912,0.1031 4.912,0.09 0.05,-2.4908 1.543,-21.4398 1.719,-21.7679 0.377,-0.7041 1.171,-1.0455 1.96,-0.9726 z m -110.074,0.3365 c 0.241,0.013 0.484,0.1132 0.891,0.3143 0.635,0.3137 0.948,0.6651 1.088,1.2157 0.1,0.4261 0.17,10.9654 0.132,23.4183 -0.04,12.4529 -0.04,22.6397 0.01,22.6397 0.139,0 0.64,-0.5657 2.283,-2.5812 6.205,-7.613 10.13,-16.2105 11.686,-25.5969 0.635,-3.8279 0.635,-12.0632 0,-15.4238 -0.454,-2.3842 -0.456,-2.4351 0,-3.0602 0.931,-1.2475 2.799,-1.1554 3.586,0.1768 0.663,1.1214 1.851,6.1278 2.164,9.1168 0.409,3.8983 0.166,11.1905 -0.484,14.6281 -1.781,9.3924 -5.674,17.7935 -11.676,25.1989 -1.85,2.2823 -5.982,6.4632 -7.737,7.8298 l 0,0 -1.312,1.0217 -2.693,0 c -2.531,0 -2.729,-0.036 -3.296,-0.6041 -0.687,-0.6871 -0.682,-0.5966 -0.361,-5.0496 0.296,-4.1039 1.724,-25.3478 2.711,-40.3182 0.405,-6.1525 0.846,-11.441 0.98,-11.7523 0.134,-0.3113 0.642,-0.7312 1.125,-0.9331 0.4,-0.1673 0.64,-0.2509 0.882,-0.2407 z m -94.335,0.067 c 0.463,0.021 0.854,0.198 1.187,0.5306 0.581,0.5809 0.551,0.278 1.761,18.4742 1.615,24.2906 2.318,34.4787 2.394,34.5466 0.04,0.037 1.945,0.419 4.236,0.8474 2.29,0.4283 4.364,0.8851 4.604,1.0143 1.061,0.5675 1.225,1.9287 0.338,2.8146 l -0.595,0.6041 -16.94,0 c -16.766,0 -16.947,-0.013 -17.589,-0.5108 -0.802,-0.6307 -0.825,-1.2807 -0.152,-4.5633 1.732,-8.4543 3.991,-14.092 7.81,-19.4838 1.743,-2.4616 5.626,-6.3521 8.467,-8.4856 l 1.9,-1.4269 0.06,-9.0628 0.06,-9.0627 -1.184,1.1616 c -1.297,1.2707 -3.245,3.7953 -4.112,5.337 -1.852,3.2962 -2.268,4.1993 -3.023,6.5232 -0.461,1.4165 -0.916,3.0942 -1.004,3.7307 -0.277,1.9065 -0.738,2.2645 -3.056,2.3701 -1.874,0.086 -2.008,0.054 -2.634,-0.5722 -0.605,-0.6044 -0.649,-0.7715 -0.507,-1.9796 0.188,-1.6097 1.589,-5.9564 2.5,-7.7635 2.561,-5.0837 7.097,-10.0961 12.519,-13.8422 1.215,-0.8405 2.183,-1.2374 2.954,-1.201 z m 134.276,0.069 c 0.578,-0.025 1.171,0.1314 1.597,0.4764 l 0.58,0.4691 0.06,28.1878 0.06,28.1856 -0.723,0.722 0,0 -0.722,0.7221 -7.527,0 -7.528,0 -0.601,-0.6041 c -0.796,-0.7999 -0.799,-1.9077 0,-2.5347 0.525,-0.4142 2.896,-0.9621 8.294,-1.9131 l 0.9,-0.1597 0.154,-1.7585 c 0.213,-2.4775 3.327,-49.2468 3.327,-49.978 0,-0.3307 0.27,-0.8738 0.602,-1.2059 0.38,-0.3794 0.946,-0.5842 1.524,-0.609 z m -241.387,0 c 0.785,0 1.955,0.6467 2.116,1.1665 0.08,0.2382 0.799,10.3896 1.615,22.5588 1.882,28.0828 2.001,29.7209 2.139,29.8654 0.06,0.065 2.069,0.4789 4.461,0.9185 3.539,0.6508 4.426,0.8961 4.777,1.3213 0.849,1.0305 0.441,2.4575 -0.83,2.9007 -0.538,0.1873 -5.847,0.2726 -17.21,0.2726 l -16.433,0 -0.788,-0.705 -0.789,-0.7048 0.305,-1.982 c 0.364,-2.3821 1.725,-7.8181 2.601,-10.3988 2.778,-8.1756 7.359,-14.416 14.461,-19.7049 l 1.658,-1.2354 0,-8.94 c 0,-5.1413 -0.101,-8.9399 -0.222,-8.9399 -0.275,0 -2.278,2.3187 -3.786,4.3792 -2.246,3.0708 -4.034,6.8701 -4.939,10.5044 -0.235,0.9405 -0.533,2.123 -0.665,2.6279 -0.303,1.1717 -0.878,1.4678 -2.94,1.5081 -1.352,0.026 -1.794,-0.065 -2.361,-0.4937 -0.621,-0.4638 -0.699,-0.6666 -0.648,-1.7192 0.165,-3.9787 3.288,-10.5168 7.181,-15.0408 2.836,-3.2944 8.977,-8.1589 10.297,-8.1589 z m 282.085,0 c 0.834,-0.024 1.384,0.3518 1.677,1.1224 0.405,1.0669 -0.1,1.6728 -3.014,3.6127 -6.669,4.4408 -10.576,9.6883 -12.088,16.2247 l -0.157,0.6754 3.878,0.025 c 2.133,0.014 6.114,0.097 8.849,0.1842 l 4.973,0.1596 0.67,0.6705 0.669,0.6705 -0.298,2.0532 c -1.314,9.0921 -6.02,17.9038 -13.788,25.8202 -2.959,3.0144 -7.127,6.7668 -8.063,7.2577 l 0,0 c -0.689,0.359 -8.344,0.3504 -9.094,-0.013 -0.796,-0.3845 -1.212,-1.5477 -0.82,-2.2816 0.171,-0.3201 1.539,-1.3256 3.045,-2.2325 3.695,-2.2283 5.834,-3.8545 8.788,-6.6903 5.588,-5.3625 9.447,-10.8883 12.111,-17.3322 0.489,-1.1848 0.889,-2.2599 0.889,-2.3874 0,-0.1397 -3.661,-0.258 -9.214,-0.302 -9.06,-0.072 -9.221,-0.083 -9.743,-0.6042 -0.672,-0.6743 -0.664,-1.901 0.03,-4.8875 2.006,-8.6586 7.006,-14.5735 17.321,-20.4858 1.429,-0.8186 2.547,-1.2391 3.38,-1.2624 z m -427.67,0 c 0.79,0 1.96,0.6066 2.156,1.1175 0.09,0.2188 0.155,13.0458 0.155,28.5047 l 0,28.1069 -0.759,0.6361 -0.754,0.6362 -7.174,-0.015 c -3.944,-0.013 -7.407,-0.1119 -7.697,-0.2284 -0.63,-0.2541 -1.319,-1.1741 -1.319,-1.7633 0,-0.2328 0.248,-0.7123 0.552,-1.0636 0.493,-0.5694 1.034,-0.7251 4.979,-1.4416 l 4.426,-0.8031 0.665,-9.9421 c 0.366,-5.4679 1.158,-17.2972 1.763,-26.287 l 1.098,-16.3448 0.649,-0.5576 c 0.356,-0.3061 0.923,-0.5551 1.26,-0.5551 z m 67.677,0.034 c 0.657,-0.055 1.434,0.2984 2.628,1.1076 7.51,5.0856 12.749,11.9477 14.705,19.2628 0.809,2.9885 0.808,3.6849 0,4.4429 l -0.633,0.5968 -7.017,0.052 c -3.861,0.029 -7.063,0.093 -7.114,0.145 -0.05,0.052 -0.06,5.6705 -0.02,12.4863 l 0.06,12.3932 1.353,-1.3655 c 0.745,-0.7506 1.864,-1.9501 2.49,-2.6672 l 1.142,-1.3042 2.233,0.086 c 2.545,0.099 3.314,0.5416 3.314,1.9084 0,0.9964 -2.156,3.7902 -5.04,6.5356 -1.947,1.852 -2.983,2.6311 -6.229,4.6836 l -0.01,0 c -0.581,0.3669 -1.288,0.4814 -3.319,0.5329 -4.411,0.1132 -4.367,0.1972 -3.836,-7.3434 0.535,-7.5939 1.706,-24.6464 2.481,-36.099 1.008,-14.9015 0.938,-14.2591 1.705,-14.9203 0.369,-0.3185 0.719,-0.4995 1.111,-0.5329 z m 37.955,0 c 0.152,2e-4 0.324,0.014 0.528,0.042 2.028,0.2722 1.861,-2.3425 1.861,29.4306 0,25.9392 -0.04,28.2611 -0.408,28.635 -0.222,0.2239 -0.671,0.5068 -0.997,0.6313 l 0,0 c -0.327,0.1232 -3.711,0.221 -7.522,0.221 -7.417,0 -7.834,-0.064 -8.496,-1.2427 -0.296,-0.5382 -0.298,-0.7248 0,-1.3459 0.535,-1.1131 1.018,-1.2571 7.909,-2.3848 1.372,-0.2243 1.682,-0.3652 1.77,-0.7835 0.05,-0.2797 0.875,-12.1201 1.816,-26.3141 l 1.709,-25.8079 0.683,-0.5845 c 0.416,-0.359 0.695,-0.4966 1.152,-0.4962 z m -76.739,0.03 c 0.253,0.013 0.503,0.055 0.732,0.1425 1.108,0.4205 5.579,3.9453 7.802,6.1498 1.83,1.8128 4.954,5.615 4.954,6.0271 0,0.072 0.334,0.695 0.742,1.3877 1.519,2.5757 2.816,6.3421 3.47,10.0722 0.471,2.6888 0.401,8.9658 -0.128,11.6784 -0.616,3.1583 -1.932,6.9697 -3.308,9.5835 -2.905,5.5201 -7.768,10.5618 -12.678,13.1448 l -1.423,0.7514 -7.043,-0.013 c -5.823,-0.012 -7.162,-0.074 -7.732,-0.383 -1.227,-0.6652 -1.361,-2.2516 -0.25,-2.9792 0.327,-0.2149 2.492,-0.7394 4.808,-1.1666 2.318,-0.427 4.249,-0.8798 4.275,-1.007 0.04,-0.1272 0.182,-2.1125 0.329,-4.411 0.147,-2.2987 0.653,-9.8776 1.127,-16.841 0.473,-6.9637 1.128,-16.738 1.456,-21.7212 0.459,-6.9705 0.688,-9.1929 0.978,-9.6375 0.332,-0.5072 1.127,-0.8066 1.889,-0.7785 z m 40.296,3.9885 0,8.2966 -0.03,0 0,8.2989 5.282,0 c 2.908,0 5.286,-0.049 5.286,-0.1081 0,-0.3965 -1.457,-4.0389 -2.269,-5.6711 -1.547,-3.1079 -3.445,-5.7846 -5.957,-8.3972 l -2.322,-2.4192 z m -38.087,2.4781 c -0.201,-0.1265 -0.274,5.6274 -0.274,22.0233 l 0,22.1928 1.368,-1.3435 c 4.18,-4.1006 7.066,-9.7216 8.131,-15.834 0.584,-3.347 0.343,-9.0812 -0.505,-12.1377 -1.473,-5.3001 -3.883,-9.6697 -7.641,-13.8424 -0.441,-0.4885 -0.925,-0.9642 -1.079,-1.0585 z m 470.987,22.5981 -1.341,1.476 c -3.025,3.3215 -5.912,8.3586 -7.689,13.4174 -0.647,1.8433 -2.015,7.3062 -2.015,8.0509 0,0.1565 0.684,0.3009 1.66,0.3512 0.921,0.048 3.39,0.1094 5.512,0.1352 l 3.873,0.047 0,-11.7375 0,-11.7398 z m -358.436,0.4912 -1.436,1.5104 c -3.983,4.1902 -7.539,11.398 -9.107,18.4621 -0.742,3.3439 -0.78,3.22 1.034,3.3231 0.853,0.048 3.323,0.1094 5.514,0.135 l 3.995,0.049 0,-11.7398 0,-11.7399 z m 106.448,0 -1.33,1.4393 c -2.735,2.9636 -5.473,7.5994 -7.14,12.0837 -0.949,2.5582 -2.218,7.2373 -2.364,8.7262 l -0.09,0.8596 4.296,0.1327 0,0 c 2.364,0.072 4.822,0.1553 5.465,0.1842 l 1.166,0.054 0,-11.7398 0,-11.7399 z"
         id="path4542"
         inkscape:connector-curvature="0" />
    </g>
  </g>
</svg>
