<?xml version="1.0" encoding="UTF-8" standalone="no"?>
<!-- Created with Inkscape (http://www.inkscape.org/) -->

<svg
   xmlns:dc="http://purl.org/dc/elements/1.1/"
   xmlns:cc="http://creativecommons.org/ns#"
   xmlns:rdf="http://www.w3.org/1999/02/22-rdf-syntax-ns#"
   xmlns:svg="http://www.w3.org/2000/svg"
   xmlns="http://www.w3.org/2000/svg"
   xmlns:sodipodi="http://sodipodi.sourceforge.net/DTD/sodipodi-0.dtd"
   xmlns:inkscape="http://www.inkscape.org/namespaces/inkscape"
   width="246.89972mm"
   height="110.38646mm"
   viewBox="0 0 874.84152 391.13312"
   id="svg4355"
   version="1.1"
   inkscape:version="0.91 r13725"
   sodipodi:docname="brand-svg.svg">
  <defs
     id="defs4357" />
  <sodipodi:namedview
     id="base"
     pagecolor="#ffffff"
     bordercolor="#666666"
     borderopacity="1.0"
     inkscape:pageopacity="0.0"
     inkscape:pageshadow="2"
     inkscape:zoom="0.35"
     inkscape:cx="1072.4208"
     inkscape:cy="-353.00489"
     inkscape:document-units="px"
     inkscape:current-layer="layer1"
     showgrid="false"
     fit-margin-top="0"
     fit-margin-left="0"
     fit-margin-right="0"
     fit-margin-bottom="0"
     inkscape:window-width="1920"
     inkscape:window-height="1017"
     inkscape:window-x="-8"
     inkscape:window-y="-8"
     inkscape:window-maximized="1" />
  <metadata
     id="metadata4360">
    <rdf:RDF>
      <cc:Work
         rdf:about="">
        <dc:format>image/svg+xml</dc:format>
        <dc:type
           rdf:resource="http://purl.org/dc/dcmitype/StillImage" />
        <dc:title></dc:title>
      </cc:Work>
    </rdf:RDF>
  </metadata>
  <g
     inkscape:label="Camada 1"
     inkscape:groupmode="layer"
     id="layer1"
     transform="translate(1260.2779,211.77581)">
    <g
       id="g4299"
       transform="matrix(1.3842397,0,0,1.3842397,-2208.5465,-2083.0608)"
       style="fill:#ffffff;fill-opacity:1">
      <path
         style="fill:#ffffff;fill-opacity:1"
         d="m 1042.5605,1375.5957 c -15.1396,0 -30.2807,0.4494 -32.8574,1.3477 -7.0111,2.4441 -7.7676,5.1126 -7.7676,27.3554 l 0,20.0371 -42.81245,53.4453 -42.8125,53.4434 -0.54536,0.5977 c 108.50201,0.016 110.54531,0 110.54531,0 l 10,-4.3594 c 33.3972,-14.56 49.6345,-38.7687 49.8809,-74.3613 0.09,-13.0432 -1.0647,-22.499 -2.75,-22.498 -0.4844,3e-4 -0.8951,6.8909 -0.9121,15.3125 -0.025,12.4106 -0.5792,17.0869 -2.9238,24.6855 -10.1772,32.9832 -41.1241,54.1093 -79.545,54.2988 -15.90647,0.078 -26.59315,-2.2317 -39.99995,-8.6464 l -8.75,-4.1875 8.75,-0.1504 c 17.8586,-0.3083 37.24336,-5.5626 51.52735,-13.9668 11.5012,-6.767 26.4161,-22.4962 32.4512,-34.2227 5.4979,-10.6827 9.5287,-22.5496 10.9336,-32.1875 l 0.8652,-5.9375 13.6738,0 13.6738,0 0,-20.668 c 0,-22.9309 -0.7222,-25.5315 -7.7695,-27.9882 -2.5767,-0.8983 -17.7158,-1.3477 -32.8555,-1.3477 z m 12.7891,6.7461 c 3.5369,-0.134 6.7285,1.3966 9.8477,4.6523 5.1883,5.4154 5.1296,13.329 -0.1368,18.4629 -4.5873,4.4718 -9.9482,5.6465 -15.2187,3.334 -11.1543,-4.894 -10.8787,-20.5088 0.4453,-25.2402 1.7764,-0.7423 3.4548,-1.1481 5.0625,-1.209 z m -33.0703,0.293 c 4.4829,0.1096 8.3506,2.3759 11.293,6.6816 4.3918,6.4266 1.284,16.4415 -6.0547,19.5078 -5.6413,2.3571 -7.9373,2.2367 -12.6914,-0.6621 -5.0072,-3.0531 -6.6407,-6.0828 -6.6407,-12.3105 0,-6.1501 3.6272,-11.0047 9.418,-12.6036 1.6195,-0.4471 3.1815,-0.6498 4.6758,-0.6132 z"
         id="path4301"
         inkscape:connector-curvature="0"
         sodipodi:nodetypes="scsccccccsccsscccssccccscsscsscsccssscc" />
      <path
         style="fill:#ffffff;fill-opacity:1"
         d="m 704.43476,1600.6005 c 0,-29.1667 -0.2547,-33.75 -1.875,-33.75 -1.0313,0 -1.875,0.6962 -1.875,1.5472 0,4.3203 -3.9325,59.273 -4.3268,60.4634 -0.2525,0.7621 -2.7249,1.7479 -5.4944,2.1908 -9.1276,1.4595 -7.1777,3.2986 3.4974,3.2986 l 10.0738,0 0,-33.75 z"
         id="path4303"
         inkscape:connector-curvature="0" />
      <path
         style="fill:#ffffff;fill-opacity:1"
         d="m 736.12891,1566.9102 c -1.09677,0.1171 -1.6943,1.0245 -1.69336,2.7519 0,5.1096 -3.83986,57.7852 -4.31836,59.1992 -0.258,0.7621 -2.73441,1.7485 -5.50391,2.1914 -9.3806,1.5 -7.08732,3.2969 4.20508,3.2969 l 10.7793,0 6.60351,-6.6016 c 8.533,-8.5329 11.18461,-15.964 10.50391,-29.4199 -0.5929,-11.7196 -3.1683,-17.5036 -11.375,-25.541 -4.15656,-4.0709 -7.37323,-6.0722 -9.20117,-5.8769 z m 3.91211,6.8046 c 1.0498,-0.015 2.69161,2.5392 5.25586,6.7891 8.5303,14.1378 7.94996,28.093 -1.70704,41.0332 -1.6675,2.2343 -3.56625,4.0625 -4.21875,4.0625 -0.7111,0 -1.18554,-10.5595 -1.18554,-26.3535 0,-18.3458 0.10579,-25.5067 1.85547,-25.5313 z"
         id="path4305"
         inkscape:connector-curvature="0" />
      <path
         style="fill:#ffffff;fill-opacity:1"
         d="m 783.48242,1566.8496 c -2.202,0 -2.51113,2.1796 -4.48633,31.5625 -1.1669,17.3593 -2.10859,32.5468 -2.09179,33.75 0.024,1.6774 1.09228,2.1875 4.58398,2.1875 3.8455,0 5.5463,-1.0176 10.9375,-6.5449 l 6.38477,-6.5449 -3.56836,-0.4258 c -2.3352,-0.2785 -4.52158,0.4729 -6.33008,2.1719 -1.5196,1.4275 -3.14979,2.5937 -3.62109,2.5937 -0.4713,0 -0.85547,-6.75 -0.85547,-15 l 0,-15 8.78906,0 c 10.442,0 11.32373,-1.0687 8.01953,-9.7207 -2.5474,-6.6703 -14.08302,-19.0293 -17.76172,-19.0293 z m 2.0918,5 c 2.7909,0 11.36133,13.1719 11.36133,17.4609 0,0.7149 -2.787,1.2891 -6.25,1.2891 l -6.25,0 0,-9.375 c 0,-5.1563 0.51237,-9.375 1.13867,-9.375 z"
         id="path4307"
         inkscape:connector-curvature="0" />
      <path
         style="fill:#ffffff;fill-opacity:1"
         d="m 829.43476,1600.6005 c 0,-29.1667 -0.2547,-33.75 -1.875,-33.75 -1.2268,0 -1.875,1.2279 -1.875,3.5518 0,6.6111 -3.8298,58.066 -4.3893,58.9712 -0.3054,0.4942 -2.8178,1.2604 -5.583,1.7025 -8.3323,1.3324 -5.754,3.2745 4.3473,3.2745 l 9.375,0 0,-33.75 z"
         id="path4309"
         inkscape:connector-curvature="0" />
      <path
         style="fill:#ffffff;fill-opacity:1"
         d="m 875.38867,1566.8633 c -1.94502,0.1005 -5.70661,2.5039 -9.55664,6.2402 -5.6474,5.4806 -9.79196,12.7567 -10.38086,18.2285 -0.3136,2.9143 0.0961,3.6426 2.04883,3.6426 1.7882,0 3.02173,-1.6242 4.61523,-6.0781 2.3242,-6.4965 8.20634,-15.7969 9.99024,-15.7969 0.594,0 1.08008,4.77 1.08008,10.5996 l 0,10.5996 -5.71485,5.2657 c -8.3742,7.719 -13.78105,17.8685 -16.03515,30.0976 l -0.86328,4.6875 21.30664,0 c 12.444,0 21.30664,-0.4865 21.30664,-1.1719 0,-0.6453 -2.57621,-1.5611 -5.72461,-2.0332 -3.1485,-0.4721 -5.91971,-1.4905 -6.15821,-2.2636 -0.2386,-0.7731 -1.31036,-14.8498 -2.38085,-31.2813 -1.07061,-16.4315 -2.19495,-30.1227 -2.49805,-30.4258 -0.23395,-0.2339 -0.58631,-0.3337 -1.03516,-0.3105 z m -3.39062,34.9863 c 0.6766,0 1.1875,5.9081 1.1875,13.75 l 0,13.75 -6.875,0 c -6.07,0 -6.875,-0.2963 -6.875,-2.5312 0,-6.9148 9.0832,-24.9688 12.5625,-24.9688 z"
         id="path4311"
         inkscape:connector-curvature="0" />
      <path
         style="fill:#ffffff;fill-opacity:1"
         d="m 1001.8457,1566.4609 c -2.36228,-0.405 -11.02822,6.9013 -15.0664,12.9141 -4.1747,6.2159 -6.5715,13.7488 -4.9043,15.416 2.0837,2.0836 4.91212,-0.248 6.22852,-5.1367 1.4151,-5.2552 8.37621,-16.5547 10.19921,-16.5547 0.6227,0 1.13282,4.76 1.13282,10.5762 l 0,10.5742 -6.375,5.9629 c -7.2044,6.7389 -11.28951,13.9606 -14.15821,25.0312 -1.0818,4.1752 -1.96679,7.9333 -1.96679,8.3497 0,0.4164 9.5625,0.7558 21.25,0.7558 13.16385,0 21.24995,-0.4692 21.24995,-1.2344 0,-0.6793 -2.173,-1.5832 -4.8281,-2.0078 -2.6552,-0.4246 -5.3632,-1.1332 -6.0176,-1.5762 -0.6545,-0.4429 -2.1033,-14.5233 -3.2187,-31.289 -1.1154,-16.7657 -2.5289,-30.984 -3.1406,-31.5957 -0.098,-0.098 -0.2273,-0.1586 -0.3848,-0.1856 z m -3.34765,34.1426 c 0.5156,0 0.9375,6.4648 0.9375,14.3711 l 0,14.375 -6.875,0 c -6.0009,0 -6.875,-0.311 -6.875,-2.4551 0,-6.3872 9.6959,-26.283 12.8125,-26.291 z"
         id="path4313"
         inkscape:connector-curvature="0" />
      <path
         style="fill:#ffffff;fill-opacity:1"
         d="m 1121.8057,1627.4949 c 13.9581,-14.7586 20.5873,-37.8627 15.9659,-55.6444 -2.366,-9.1037 -3.9488,-6.6953 -4.1075,6.25 -0.1796,14.6388 -3.2057,24.7582 -10.7155,35.8325 -2.953,4.3546 -5.7954,7.9175 -6.3165,7.9175 -0.5211,0 -0.9474,-12.3418 -0.9474,-27.4263 0,-25.228 -0.7283,-31.4518 -3.2103,-27.4357 -0.4857,0.7858 -1.616,12.4669 -2.5118,25.9579 -0.8958,13.491 -1.9474,28.3259 -2.337,32.9666 l -0.7084,8.4375 4.2024,0 c 3.4709,0 5.331,-1.1934 10.6861,-6.8556 z"
         id="path4315"
         inkscape:connector-curvature="0" />
      <path
         style="fill:#ffffff;fill-opacity:1"
         d="m 1163.1847,1600.6742 c 0,-31.1337 -0.644,-37.838 -3.2324,-33.6499 -0.4979,0.8055 -1.8024,14.7365 -2.8989,30.9579 -1.0965,16.2213 -2.4031,30.1225 -2.9035,30.8916 -0.5004,0.769 -3.1723,1.7601 -5.9375,2.2022 -8.5615,1.3691 -5.6681,3.2745 4.9723,3.2745 l 10,0 0,-33.6763 z"
         id="path4317"
         inkscape:connector-curvature="0" />
      <path
         style="fill:#ffffff;fill-opacity:1"
         d="m 1198.4911,1625.7542 c 9.0111,-9.5523 14.6803,-19.8114 15.6367,-28.297 l 0.632,-5.6067 -10.7876,0 c -12.1695,0 -12.5511,-0.3928 -8.3612,-8.6057 2.3248,-4.557 8.6508,-11.0131 13.436,-13.7123 1.6299,-0.9194 1.8836,-1.6597 0.9071,-2.6473 -0.9807,-0.9918 -3.4002,0 -8.75,3.5671 -8.2936,5.5385 -12.3137,10.3338 -14.9663,17.852 -3.0297,8.587 -3.0748,8.5462 9.4469,8.5462 12.9051,0 13.0877,0.2151 8.2552,9.729 -4.0253,7.9247 -12.039,16.8042 -19.5694,21.6837 -3.4022,2.2046 -6.1858,4.4761 -6.1858,5.0478 0,0.5717 2.7443,1.0395 6.0986,1.0395 5.9208,0 6.335,-0.2507 14.2078,-8.5963 z"
         id="path4319"
         inkscape:connector-curvature="0" />
      <path
         style="fill:#ffffff;fill-opacity:1"
         d="m 1245.6847,1615.6457 0,-18.7047 11.8813,-0.3578 c 6.8491,-0.2062 11.8814,-0.8872 11.8814,-1.6077 0,-0.7206 -5.0323,-1.4016 -11.8814,-1.6078 l -11.8813,-0.3578 0,-13.7047 c 0,-10.8051 -0.3642,-13.7047 -1.7214,-13.7047 -1.2875,0 -1.9965,3.3875 -2.8125,13.4375 l -1.0911,13.4375 -5.7427,0.1183 c -10.6283,0.219 -12.2952,4.2567 -1.7573,4.2567 l 6.875,0 -0.01,5.9375 c 0,3.2656 -0.368,10.5681 -0.8086,16.2278 l -0.801,10.2902 -4.504,0.7446 c -6.6125,1.0932 -7.8748,1.6408 -7.0094,3.041 0.4279,0.6924 4.9636,1.2589 10.0792,1.2589 l 9.3013,0 0,-18.7048 z"
         id="path4321"
         inkscape:connector-curvature="0" />
      <path
         style="fill:#ffffff;fill-opacity:1"
         d="m 1300.6504,1565.7168 c -1.4311,-0.064 -4.064,1.6016 -7.9336,5.0078 -6.3852,5.6205 -11.321,13.26 -12.6348,19.5625 -0.767,3.6795 -0.5664,4.0625 2.1192,4.0625 2.4325,0 3.22,-0.9543 4.3867,-5.3164 1.4908,-5.5738 8.2241,-15.9336 10.3555,-15.9336 0.7241,0 1.2421,4.3696 1.2421,10.4766 l 0,10.4765 -4.4609,3.4024 c -8.5258,6.503 -15.2313,18.699 -17.3808,31.6133 l -0.8887,5.3437 20.7422,-0.3437 c 12.6734,-0.2097 20.784,-0.8301 20.8496,-1.5938 0.059,-0.6875 -2.2704,-1.6544 -5.1758,-2.1504 -2.9053,-0.496 -5.4226,-1.0585 -5.5957,-1.25 -0.3109,-0.3441 -4.3399,-57.3244 -4.3399,-61.3769 0,-1.2813 -0.4264,-1.9422 -1.2851,-1.9805 z m -3.5899,34.8828 c 1.6363,0 0.8928,27.865 -0.75,28.1074 -0.6875,0.1015 -3.6406,-0.027 -6.5625,-0.2832 -4.8228,-0.4239 -5.3118,-0.7767 -5.3007,-3.832 0.021,-5.8094 9.5798,-23.9922 12.6132,-23.9922 z"
         id="path4323"
         inkscape:connector-curvature="0" />
      <path
         style="fill:#ffffff;fill-opacity:1"
         d="m 993.62733,1546.3386 c -3.3372,-5.8675 -6.5389,-10.684 -7.115,-10.7032 -1.6453,-0.055 0.4359,10.206 2.8667,14.1337 2.1347,3.449 8.8327,8.7209 9.8225,7.7311 0.2714,-0.2714 -2.2369,-5.2941 -5.5742,-11.1616 z"
         id="path4325"
         inkscape:connector-curvature="0" />
      <path
         style="fill:#ffffff;fill-opacity:1"
         d="m 1001.518,1378.517 c -0.4583,-0.4583 -0.8333,-6.6458 -0.8333,-13.75 0,-10.5481 0.3379,-12.9166 1.8429,-12.9166 2.8813,0 5.6571,6.7467 5.6571,13.75 0,8.5913 -3.742,15.8413 -6.6667,12.9166 z"
         id="path4327"
         inkscape:connector-curvature="0" />
      <path
         style="fill:#ffffff;fill-opacity:1"
         d="m 1079.4347,1376.8054 c 0,-2.6722 13.1709,-23.705 14.8443,-23.705 2.5359,0 0.8871,10.3964 -2.5242,15.916 -3.5391,5.7264 -12.3201,11.2779 -12.3201,7.789 z"
         id="path4329"
         inkscape:connector-curvature="0" />
    </g>
  </g>
</svg>
