<?xml version="1.0" encoding="UTF-8" standalone="no"?>
<!-- Generator: Adobe Illustrator 19.0.0, SVG Export Plug-In . SVG Version: 6.00 Build 0)  -->

<svg
   xmlns:dc="http://purl.org/dc/elements/1.1/"
   xmlns:cc="http://creativecommons.org/ns#"
   xmlns:rdf="http://www.w3.org/1999/02/22-rdf-syntax-ns#"
   xmlns:svg="http://www.w3.org/2000/svg"
   xmlns="http://www.w3.org/2000/svg"
   xmlns:sodipodi="http://sodipodi.sourceforge.net/DTD/sodipodi-0.dtd"
   xmlns:inkscape="http://www.inkscape.org/namespaces/inkscape"
   version="1.1"
   id="Layer_1"
   x="0px"
   y="0px"
   viewBox="0 0 290 69.999999"
   xml:space="preserve"
   width="512"
   height="123.5862"
   inkscape:version="0.91 r13725"
   sodipodi:docname="icon-menu.svg"><metadata
     id="metadata45"><rdf:RDF><cc:Work
         rdf:about=""><dc:format>image/svg+xml</dc:format><dc:type
           rdf:resource="http://purl.org/dc/dcmitype/StillImage" /><dc:title></dc:title></cc:Work></rdf:RDF></metadata><defs
     id="defs43" /><sodipodi:namedview
     pagecolor="#ffffff"
     bordercolor="#666666"
     borderopacity="1"
     objecttolerance="10"
     gridtolerance="10"
     guidetolerance="10"
     inkscape:pageopacity="0"
     inkscape:pageshadow="2"
     inkscape:window-width="1920"
     inkscape:window-height="1017"
     id="namedview41"
     showgrid="false"
     fit-margin-top="0"
     fit-margin-left="0"
     fit-margin-right="0"
     fit-margin-bottom="0"
     inkscape:zoom="2.7363281"
     inkscape:cx="256"
     inkscape:cy="61.793102"
     inkscape:window-x="-8"
     inkscape:window-y="-8"
     inkscape:window-maximized="1"
     inkscape:current-layer="Layer_1" /><g
     id="g3"
     style="fill:#ffffff"
     transform="translate(0,-110)"><path
       d="m 255,110 c -19.299,0 -35,15.701 -35,35 0,19.299 15.701,35 35,35 19.299,0 35,-15.701 35,-35 0,-19.299 -15.701,-35 -35,-35 z"
       id="path5"
       style="fill:#ffffff"
       inkscape:connector-curvature="0" /><path
       d="m 35,110 c -19.299,0 -35,15.701 -35,35 0,19.299 15.701,35 35,35 19.299,0 35,-15.701 35,-35 0,-19.299 -15.701,-35 -35,-35 z"
       id="path7"
       style="fill:#ffffff"
       inkscape:connector-curvature="0" /><path
       d="m 145,110 c -19.299,0 -35,15.701 -35,35 0,19.299 15.701,35 35,35 19.299,0 35,-15.701 35,-35 0,-19.299 -15.701,-35 -35,-35 z"
       id="path9"
       style="fill:#ffffff"
       inkscape:connector-curvature="0" /></g><g
     id="g11"
     transform="translate(0,-110)" /><g
     id="g13"
     transform="translate(0,-110)" /><g
     id="g15"
     transform="translate(0,-110)" /><g
     id="g17"
     transform="translate(0,-110)" /><g
     id="g19"
     transform="translate(0,-110)" /><g
     id="g21"
     transform="translate(0,-110)" /><g
     id="g23"
     transform="translate(0,-110)" /><g
     id="g25"
     transform="translate(0,-110)" /><g
     id="g27"
     transform="translate(0,-110)" /><g
     id="g29"
     transform="translate(0,-110)" /><g
     id="g31"
     transform="translate(0,-110)" /><g
     id="g33"
     transform="translate(0,-110)" /><g
     id="g35"
     transform="translate(0,-110)" /><g
     id="g37"
     transform="translate(0,-110)" /><g
     id="g39"
     transform="translate(0,-110)" /></svg>